<?xml version="1.0" encoding="utf-8"?>
<!-- Generator: Adobe Illustrator 16.0.0, SVG Export Plug-In . SVG Version: 6.00 Build 0)  -->
<!DOCTYPE svg PUBLIC "-//W3C//DTD SVG 1.1//EN" "http://www.w3.org/Graphics/SVG/1.1/DTD/svg11.dtd">
<svg version="1.1" id="swarm-logo" xmlns="http://www.w3.org/2000/svg" xmlns:xlink="http://www.w3.org/1999/xlink" x="0px" y="0px"
	 width="3072px" height="1188.225px" viewBox="0 171.381 3072 1188.225" enable-background="new 0 171.381 3072 1188.225"
	 xml:space="preserve">
<g>
	<path d="M1741.49,1188.832l-235.285-307.274v458.552h78.197v-232.824l157.088,204.454l156.404-204.454v232.824h78.882V881.558
		L1741.49,1188.832z M1213.615,1130.334V963.697h70.12c32.357,0,56.628,7.68,72.136,23.039
		c18.867,17.729,22.244,42.555,22.244,60.284c0,17.127-3.377,41.953-22.244,59.673c-15.508,15.359-39.778,23.641-72.136,23.641
		H1213.615z M1408.447,1148.063c26.307-25.409,40.463-60.866,40.463-101.043c0-40.778-14.156-76.227-40.463-101.645
		c-20.218-20.079-58.646-43.721-124.712-43.721h-148.317v438.454h78.197v-148.326h57.313l126.072,148.326h88.302l-134.826-158.375
		C1377.449,1173.472,1396.326,1159.879,1408.447,1148.063L1408.447,1148.063z M835.427,1184.695l60.672-133.548l60.672,133.548
		H835.427z M678.348,1340.109h86.293l42.472-93.965h177.973l42.48,93.965h85.618L896.099,881.558L678.348,1340.109z
		 M358.656,901.655h-86.293l229.225,457.95l124.046-264.137l63.115,126.156l39.455-87.729l-61.449-126.47L622.94,918.2
		l-40.454,90.401L499.552,1190.6L358.656,901.655z M240.004,1133.286c-10.789-8.864-25.612-21.272-37.752-31.904l-83.591-70.323
		c-20.903-17.729-21.569-31.321-18.876-39.584c4.044-12.418,18.876-22.467,36.401-25.409c14.167-2.368,40.454-2.368,66.066,24.808
		l61.348-43.129c-19.542-20.68-42.471-35.457-68.083-44.321c-24.28-7.681-49.892-9.447-74.163-4.729
		c-22.253,3.544-43.147,12.408-59.997,24.816c-18.201,13.593-31.016,30.138-37.086,49.051c-6.07,17.729-5.385,37.225,1.36,55.546
		c6.736,18.913,19.542,36.632,38.418,52.584l61.357,50.818c2.692,2.368,39.094,33.681,61.347,52.002
		c14.157,11.825,29.665,29.545,22.919,49.633c-6.07,17.729-26.963,32.506-52.584,36.642c-14.833,2.942-31.016,1.768-45.849-3.553
		c-18.201-5.895-35.05-17.72-49.208-34.273L0,1274.515c23.595,26.584,51.243,44.905,82.925,56.129
		c18.876,6.505,39.103,9.466,59.331,9.466c10.113,0,20.227-0.602,30.331-2.369c54.611-9.456,98.434-43.137,112.591-85.683
		c6.745-20.098,6.07-41.361-1.351-61.458C276.415,1169.919,261.583,1150.423,240.004,1133.286L240.004,1133.286z"/>
	<path fill="#FFAF03" d="M2182.012,940.104l-230.344-208.211l473.81-439.38l546.761-1.647L2182.012,940.104z M2226.5,979.863
		l151.648-127.053l-1.037,280.764L2226.5,979.863z M1940.185,269.14l206.388,205.565l-205.972,194.683L1940.185,269.14z
		 M1879.799,393.065l-123.639,0.685l125.009-125.018L1879.799,393.065z M3058.531,240.048
		c-197.773,1.018-642.474-6.153-655.798-1.027l-212.098,198.791l-260.287-258.224c0,0-2.036-8.54-22.531-8.198
		c-9.559,0.157-15.378,5.126-15.378,5.126L1665.98,403.993c0,0-8.883,9.559-7.171,20.495c2.396,15.305,18.441,20.496,18.441,20.496
		l203.918,1.026c0,0-4.747,284.586,1.036,296.124c5.802,11.613,502.078,474.439,502.078,474.439s9.336,9.753,19.477,11.271
		c20.496,3.071,25.613-18.441,25.613-18.441l2.045-403.737c0,0,443.682-363.764,627.113-515.411
		c5.395-4.46,11.612,0.99,13.314-24.585C3072.864,250.292,3068.83,239.993,3058.531,240.048L3058.531,240.048z"/>
</g>
</svg>
